<svg width="32" height="32" viewBox="0 0 32 32" fill="none" xmlns="http://www.w3.org/2000/svg">
<path d="M29.78 28.38L25.78 23.38C25.664 23.2321 25.5086 23.1198 25.3318 23.0562C25.1549 22.9925 24.9637 22.98 24.78 23.02L16 25L7.21999 23C7.03631 22.96 6.84507 22.9725 6.6682 23.0362C6.49133 23.0998 6.33598 23.2121 6.21999 23.36L2.21999 28.36C2.10392 28.5064 2.03116 28.6823 2.00995 28.8679C1.98874 29.0534 2.01993 29.2413 2.09999 29.41C2.17815 29.5839 2.3044 29.7319 2.46385 29.8364C2.62331 29.9409 2.80933 29.9977 2.99999 30H29C29.1885 29.9995 29.373 29.9457 29.5322 29.8448C29.6914 29.744 29.8189 29.6002 29.9 29.43C29.98 29.2613 30.0112 29.0734 29.99 28.8879C29.9688 28.7023 29.8961 28.5264 29.78 28.38Z" fill="#304046"/>
<path d="M2.51996 7.86003L15.87 11.62L29.65 7.75003C29.7585 7.65724 29.8458 7.5423 29.9062 7.41294C29.9666 7.28357 29.9985 7.14278 30 7.00003C30.0094 6.77817 29.9448 6.55947 29.8163 6.37841C29.6877 6.19735 29.5025 6.06422 29.29 6.00003L16.29 2.00003C16.0999 1.95002 15.9001 1.95002 15.71 2.00003L2.70996 6.00003C2.52538 6.05944 2.36205 6.17124 2.23986 6.32181C2.11767 6.47239 2.0419 6.65524 2.02176 6.8481C2.00163 7.04096 2.038 7.23552 2.12646 7.40808C2.21491 7.58065 2.35163 7.72377 2.51996 7.82003V7.86003Z" fill="#304046"/>
<path d="M16.14 13.62C15.964 13.6735 15.776 13.6735 15.6 13.62L8.5 11.62V16.28C8.50264 18.0217 9.19569 19.6913 10.4272 20.9228C11.6588 22.1544 13.3283 22.8474 15.07 22.85H16.93C18.6717 22.8474 20.3412 22.1544 21.5728 20.9228C22.8043 19.6913 23.4974 18.0217 23.5 16.28V11.55L16.14 13.62Z" fill="#304046"/>
</svg>
