<svg width="15" height="16" viewBox="0 0 15 16" fill="none" xmlns="http://www.w3.org/2000/svg">
<g clip-path="url(#clip0_85_653)">
<path fill-rule="evenodd" clip-rule="evenodd" d="M7.50621 0.5C3.35547 0.5 0 3.8802 0 8.06198C0 11.4047 2.14996 14.2342 5.13253 15.2357C5.50543 15.311 5.64202 15.073 5.64202 14.8728C5.64202 14.6975 5.62973 14.0966 5.62973 13.4705C3.54169 13.9213 3.10687 12.569 3.10687 12.569C2.77131 11.6926 2.27411 11.4674 2.27411 11.4674C1.59069 11.0041 2.32389 11.0041 2.32389 11.0041C3.08198 11.0542 3.47977 11.7804 3.47977 11.7804C4.15074 12.9321 5.23194 12.6067 5.66691 12.4063C5.72899 11.918 5.92796 11.58 6.13922 11.3922C4.47386 11.2169 2.72168 10.5659 2.72168 7.66127C2.72168 6.83497 3.01975 6.15892 3.49206 5.63315C3.41754 5.44539 3.1565 4.66902 3.56673 3.62992C3.56673 3.62992 4.20052 3.42956 5.62958 4.40613C6.24141 4.24061 6.87238 4.1564 7.50621 4.15569C8.13999 4.15569 8.78607 4.24342 9.38268 4.40613C10.8119 3.42956 11.4457 3.62992 11.4457 3.62992C11.8559 4.66902 11.5947 5.44539 11.5202 5.63315C12.005 6.15892 12.2907 6.83497 12.2907 7.66127C12.2907 10.5659 10.5386 11.2043 8.86075 11.3922C9.13424 11.6301 9.37024 12.0807 9.37024 12.7944C9.37024 13.8085 9.35794 14.6223 9.35794 14.8726C9.35794 15.073 9.49469 15.311 9.86743 15.2358C12.85 14.2341 15 11.4047 15 8.06198C15.0123 3.8802 11.6445 0.5 7.50621 0.5Z" fill="#40BA21"/>
</g>
<defs>
<clipPath id="clip0_85_653">
<rect width="15" height="15" fill="white" transform="translate(0 0.5)"/>
</clipPath>
</defs>
</svg>
