<svg width="606" height="62" viewBox="0 0 606 62" fill="none" xmlns="http://www.w3.org/2000/svg">
<g filter="url(#filter0_dd_45_179)">
<rect x="3" y="3" width="600" height="54" rx="10" fill="white"/>
<rect x="181.5" y="3" width="242" height="54" rx="10" fill="white"/>
<rect width="24" height="24" transform="translate(196.5 18)" fill="white"/>
<path fill-rule="evenodd" clip-rule="evenodd" d="M219.54 30.2613C219.54 29.4459 219.467 28.6618 219.331 27.9091H208.5V32.3575H214.689C214.422 33.795 213.612 35.0129 212.394 35.8284V38.7138H216.111C218.285 36.7118 219.54 33.7636 219.54 30.2613Z" fill="#4285F4"/>
<path fill-rule="evenodd" clip-rule="evenodd" d="M208.5 41.4998C211.605 41.4998 214.208 40.47 216.111 38.7137L212.394 35.8282C211.364 36.5182 210.047 36.9259 208.5 36.9259C205.505 36.9259 202.969 34.903 202.065 32.1848H198.223V35.1644C200.115 38.9228 204.004 41.4998 208.5 41.4998Z" fill="#34A853"/>
<path fill-rule="evenodd" clip-rule="evenodd" d="M202.065 32.1851C201.835 31.4951 201.705 30.7581 201.705 30.0001C201.705 29.2422 201.835 28.5051 202.065 27.8151V24.8356H198.223C197.444 26.3881 197 28.1444 197 30.0001C197 31.8558 197.444 33.6122 198.223 35.1647L202.065 32.1851Z" fill="#FBBC05"/>
<path fill-rule="evenodd" clip-rule="evenodd" d="M208.5 23.0739C210.188 23.0739 211.704 23.6541 212.896 24.7936L216.194 21.4952C214.203 19.6395 211.6 18.5 208.5 18.5C204.004 18.5 200.115 21.077 198.223 24.8355L202.065 27.815C202.969 25.0968 205.505 23.0739 208.5 23.0739Z" fill="#EA4335"/>
<path d="M244.426 32.3379C244.426 32.0449 244.38 31.7845 244.289 31.5566C244.204 31.3288 244.051 31.1204 243.83 30.9316C243.609 30.7428 243.296 30.5605 242.893 30.3848C242.495 30.2025 241.988 30.0169 241.369 29.8281C240.692 29.6198 240.067 29.3887 239.494 29.1348C238.928 28.8743 238.433 28.5749 238.01 28.2363C237.587 27.8913 237.258 27.4974 237.023 27.0547C236.789 26.6055 236.672 26.0879 236.672 25.502C236.672 24.9225 236.792 24.3952 237.033 23.9199C237.281 23.4447 237.629 23.0345 238.078 22.6895C238.534 22.3379 239.071 22.0677 239.689 21.8789C240.308 21.6836 240.992 21.5859 241.74 21.5859C242.795 21.5859 243.703 21.7812 244.465 22.1719C245.233 22.5625 245.822 23.0866 246.232 23.7441C246.649 24.4017 246.857 25.1276 246.857 25.9219H244.426C244.426 25.4531 244.325 25.0397 244.123 24.6816C243.928 24.3171 243.628 24.0306 243.225 23.8223C242.827 23.6139 242.323 23.5098 241.711 23.5098C241.132 23.5098 240.65 23.5977 240.266 23.7734C239.882 23.9492 239.595 24.1868 239.406 24.4863C239.217 24.7858 239.123 25.1243 239.123 25.502C239.123 25.7689 239.185 26.013 239.309 26.2344C239.432 26.4492 239.621 26.651 239.875 26.8398C240.129 27.0221 240.448 27.1947 240.832 27.3574C241.216 27.5202 241.669 27.6764 242.189 27.8262C242.977 28.0605 243.664 28.321 244.25 28.6074C244.836 28.8874 245.324 29.2064 245.715 29.5645C246.105 29.9225 246.398 30.3294 246.594 30.7852C246.789 31.2344 246.887 31.7454 246.887 32.3184C246.887 32.9173 246.766 33.4577 246.525 33.9395C246.285 34.4147 245.939 34.8216 245.49 35.1602C245.048 35.4922 244.514 35.7493 243.889 35.9316C243.27 36.1074 242.58 36.1953 241.818 36.1953C241.135 36.1953 240.461 36.1042 239.797 35.9219C239.139 35.7396 238.54 35.4629 238 35.0918C237.46 34.7142 237.03 34.2454 236.711 33.6855C236.392 33.1191 236.232 32.4583 236.232 31.7031H238.684C238.684 32.1654 238.762 32.5592 238.918 32.8848C239.081 33.2103 239.305 33.4772 239.592 33.6855C239.878 33.8874 240.21 34.0371 240.588 34.1348C240.972 34.2324 241.382 34.2812 241.818 34.2812C242.391 34.2812 242.87 34.1999 243.254 34.0371C243.645 33.8743 243.938 33.6465 244.133 33.3535C244.328 33.0605 244.426 32.722 244.426 32.3379ZM251.34 25.4336V36H248.977V25.4336H251.34ZM248.82 22.6602C248.82 22.3021 248.938 22.0059 249.172 21.7715C249.413 21.5306 249.745 21.4102 250.168 21.4102C250.585 21.4102 250.913 21.5306 251.154 21.7715C251.395 22.0059 251.516 22.3021 251.516 22.6602C251.516 23.0117 251.395 23.3047 251.154 23.5391C250.913 23.7734 250.585 23.8906 250.168 23.8906C249.745 23.8906 249.413 23.7734 249.172 23.5391C248.938 23.3047 248.82 23.0117 248.82 22.6602ZM260.686 25.4336H262.824V35.707C262.824 36.6576 262.622 37.4648 262.219 38.1289C261.815 38.793 261.252 39.2975 260.529 39.6426C259.807 39.9941 258.97 40.1699 258.02 40.1699C257.616 40.1699 257.167 40.1113 256.672 39.9941C256.184 39.877 255.708 39.6882 255.246 39.4277C254.79 39.1738 254.41 38.8385 254.104 38.4219L255.207 37.0352C255.585 37.4844 256.001 37.8132 256.457 38.0215C256.913 38.2298 257.391 38.334 257.893 38.334C258.433 38.334 258.892 38.2331 259.27 38.0312C259.654 37.8359 259.95 37.5462 260.158 37.1621C260.367 36.778 260.471 36.3092 260.471 35.7559V27.8262L260.686 25.4336ZM253.508 30.834V30.6289C253.508 29.8281 253.605 29.099 253.801 28.4414C253.996 27.7773 254.276 27.2077 254.641 26.7324C255.005 26.2507 255.448 25.8828 255.969 25.6289C256.49 25.3685 257.079 25.2383 257.736 25.2383C258.42 25.2383 259.003 25.362 259.484 25.6094C259.973 25.8568 260.38 26.2116 260.705 26.6738C261.031 27.1296 261.285 27.6764 261.467 28.3145C261.656 28.946 261.796 29.6491 261.887 30.4238V31.0781C261.802 31.8333 261.659 32.5234 261.457 33.1484C261.255 33.7734 260.988 34.3138 260.656 34.7695C260.324 35.2253 259.914 35.5768 259.426 35.8242C258.944 36.0716 258.374 36.1953 257.717 36.1953C257.072 36.1953 256.49 36.0618 255.969 35.7949C255.454 35.528 255.012 35.1536 254.641 34.6719C254.276 34.1901 253.996 33.6237 253.801 32.9727C253.605 32.3151 253.508 31.6022 253.508 30.834ZM255.861 30.6289V30.834C255.861 31.3158 255.907 31.765 255.998 32.1816C256.096 32.5983 256.242 32.9661 256.438 33.2852C256.639 33.5977 256.893 33.8451 257.199 34.0273C257.512 34.2031 257.88 34.291 258.303 34.291C258.856 34.291 259.309 34.1738 259.66 33.9395C260.018 33.7051 260.292 33.3893 260.48 32.9922C260.676 32.5885 260.812 32.1393 260.891 31.6445V29.877C260.852 29.4928 260.77 29.1348 260.646 28.8027C260.529 28.4707 260.37 28.181 260.168 27.9336C259.966 27.6797 259.712 27.4844 259.406 27.3477C259.1 27.2044 258.739 27.1328 258.322 27.1328C257.899 27.1328 257.531 27.224 257.219 27.4062C256.906 27.5885 256.649 27.8392 256.447 28.1582C256.252 28.4772 256.105 28.8483 256.008 29.2715C255.91 29.6947 255.861 30.1471 255.861 30.6289ZM267.6 27.6895V36H265.246V25.4336H267.463L267.6 27.6895ZM267.18 30.3262L266.418 30.3164C266.424 29.5677 266.529 28.8809 266.73 28.2559C266.939 27.6309 267.225 27.0938 267.59 26.6445C267.961 26.1953 268.404 25.8503 268.918 25.6094C269.432 25.362 270.005 25.2383 270.637 25.2383C271.145 25.2383 271.604 25.3099 272.014 25.4531C272.43 25.5898 272.785 25.8145 273.078 26.127C273.378 26.4395 273.605 26.8464 273.762 27.3477C273.918 27.8424 273.996 28.4512 273.996 29.1738V36H271.633V29.1641C271.633 28.6562 271.558 28.2559 271.408 27.9629C271.265 27.6634 271.053 27.4518 270.773 27.3281C270.5 27.1979 270.158 27.1328 269.748 27.1328C269.344 27.1328 268.983 27.2174 268.664 27.3867C268.345 27.556 268.075 27.7871 267.854 28.0801C267.639 28.373 267.473 28.7116 267.355 29.0957C267.238 29.4798 267.18 29.89 267.18 30.3262ZM284.23 21.7812V36H281.779V21.7812H284.23ZM289.377 27.6895V36H287.023V25.4336H289.24L289.377 27.6895ZM288.957 30.3262L288.195 30.3164C288.202 29.5677 288.306 28.8809 288.508 28.2559C288.716 27.6309 289.003 27.0938 289.367 26.6445C289.738 26.1953 290.181 25.8503 290.695 25.6094C291.21 25.362 291.783 25.2383 292.414 25.2383C292.922 25.2383 293.381 25.3099 293.791 25.4531C294.208 25.5898 294.562 25.8145 294.855 26.127C295.155 26.4395 295.383 26.8464 295.539 27.3477C295.695 27.8424 295.773 28.4512 295.773 29.1738V36H293.41V29.1641C293.41 28.6562 293.335 28.2559 293.186 27.9629C293.042 27.6634 292.831 27.4518 292.551 27.3281C292.277 27.1979 291.936 27.1328 291.525 27.1328C291.122 27.1328 290.76 27.2174 290.441 27.3867C290.122 27.556 289.852 27.7871 289.631 28.0801C289.416 28.373 289.25 28.7116 289.133 29.0957C289.016 29.4798 288.957 29.89 288.957 30.3262ZM306.027 33.6562L308.469 25.4336H309.973L309.562 27.8945L307.102 36H305.754L306.027 33.6562ZM304.592 25.4336L306.496 33.6953L306.652 36H305.148L302.287 25.4336H304.592ZM312.258 33.5977L314.104 25.4336H316.398L313.547 36H312.043L312.258 33.5977ZM310.227 25.4336L312.639 33.5586L312.941 36H311.594L309.104 27.8848L308.693 25.4336H310.227ZM320.52 25.4336V36H318.156V25.4336H320.52ZM318 22.6602C318 22.3021 318.117 22.0059 318.352 21.7715C318.592 21.5306 318.924 21.4102 319.348 21.4102C319.764 21.4102 320.093 21.5306 320.334 21.7715C320.575 22.0059 320.695 22.3021 320.695 22.6602C320.695 23.0117 320.575 23.3047 320.334 23.5391C320.093 23.7734 319.764 23.8906 319.348 23.8906C318.924 23.8906 318.592 23.7734 318.352 23.5391C318.117 23.3047 318 23.0117 318 22.6602ZM327.941 25.4336V27.1523H321.984V25.4336H327.941ZM323.703 22.8457H326.057V33.0801C326.057 33.4056 326.102 33.6562 326.193 33.832C326.291 34.0013 326.424 34.1152 326.594 34.1738C326.763 34.2324 326.962 34.2617 327.189 34.2617C327.352 34.2617 327.508 34.252 327.658 34.2324C327.808 34.2129 327.928 34.1934 328.02 34.1738L328.029 35.9707C327.834 36.0293 327.606 36.0814 327.346 36.127C327.092 36.1725 326.799 36.1953 326.467 36.1953C325.926 36.1953 325.448 36.1009 325.031 35.9121C324.615 35.7168 324.289 35.401 324.055 34.9648C323.82 34.5286 323.703 33.9492 323.703 33.2266V22.8457ZM332.082 21V36H329.738V21H332.082ZM331.672 30.3262L330.91 30.3164C330.917 29.5872 331.018 28.9134 331.213 28.2949C331.415 27.6764 331.695 27.1393 332.053 26.6836C332.417 26.2214 332.854 25.8665 333.361 25.6191C333.869 25.3652 334.432 25.2383 335.051 25.2383C335.572 25.2383 336.04 25.3099 336.457 25.4531C336.88 25.5964 337.245 25.8275 337.551 26.1465C337.857 26.459 338.088 26.8691 338.244 27.377C338.407 27.8783 338.488 28.4902 338.488 29.2129V36H336.125V29.1934C336.125 28.6855 336.05 28.2819 335.9 27.9824C335.757 27.6829 335.546 27.4681 335.266 27.3379C334.986 27.2012 334.644 27.1328 334.24 27.1328C333.817 27.1328 333.443 27.2174 333.117 27.3867C332.798 27.556 332.531 27.7871 332.316 28.0801C332.102 28.373 331.939 28.7116 331.828 29.0957C331.724 29.4798 331.672 29.89 331.672 30.3262ZM357.004 28.7344V34.1641C356.802 34.431 356.486 34.724 356.057 35.043C355.633 35.3555 355.07 35.6257 354.367 35.8535C353.664 36.0814 352.788 36.1953 351.74 36.1953C350.848 36.1953 350.031 36.0456 349.289 35.7461C348.547 35.4401 347.906 34.9941 347.365 34.4082C346.831 33.8223 346.418 33.1094 346.125 32.2695C345.832 31.4232 345.686 30.4596 345.686 29.3789V28.3926C345.686 27.3184 345.819 26.3613 346.086 25.5215C346.359 24.6751 346.75 23.959 347.258 23.373C347.766 22.7871 348.378 22.3444 349.094 22.0449C349.816 21.7389 350.633 21.5859 351.545 21.5859C352.71 21.5859 353.674 21.7812 354.436 22.1719C355.204 22.556 355.796 23.0898 356.213 23.7734C356.63 24.457 356.893 25.2383 357.004 26.1172H354.602C354.523 25.6224 354.37 25.1797 354.143 24.7891C353.921 24.3984 353.602 24.0924 353.186 23.8711C352.775 23.6432 352.242 23.5293 351.584 23.5293C351.018 23.5293 350.52 23.6367 350.09 23.8516C349.66 24.0664 349.302 24.3822 349.016 24.7988C348.736 25.2155 348.524 25.7233 348.381 26.3223C348.238 26.9212 348.166 27.6048 348.166 28.373V29.3789C348.166 30.1602 348.247 30.8535 348.41 31.459C348.579 32.0645 348.82 32.5755 349.133 32.9922C349.452 33.4089 349.839 33.7246 350.295 33.9395C350.751 34.1478 351.265 34.252 351.838 34.252C352.398 34.252 352.857 34.2064 353.215 34.1152C353.573 34.0176 353.856 33.9036 354.064 33.7734C354.279 33.6367 354.445 33.5065 354.562 33.3828V30.5605H351.604V28.7344H357.004ZM359.035 30.834V30.6094C359.035 29.8477 359.146 29.1413 359.367 28.4902C359.589 27.8327 359.908 27.263 360.324 26.7812C360.747 26.293 361.262 25.9154 361.867 25.6484C362.479 25.375 363.169 25.2383 363.938 25.2383C364.712 25.2383 365.402 25.375 366.008 25.6484C366.62 25.9154 367.137 26.293 367.561 26.7812C367.984 27.263 368.306 27.8327 368.527 28.4902C368.749 29.1413 368.859 29.8477 368.859 30.6094V30.834C368.859 31.5957 368.749 32.3021 368.527 32.9531C368.306 33.6042 367.984 34.1738 367.561 34.6621C367.137 35.1439 366.623 35.5215 366.018 35.7949C365.412 36.0618 364.725 36.1953 363.957 36.1953C363.182 36.1953 362.489 36.0618 361.877 35.7949C361.271 35.5215 360.757 35.1439 360.334 34.6621C359.911 34.1738 359.589 33.6042 359.367 32.9531C359.146 32.3021 359.035 31.5957 359.035 30.834ZM361.389 30.6094V30.834C361.389 31.3092 361.438 31.7585 361.535 32.1816C361.633 32.6048 361.786 32.9759 361.994 33.2949C362.202 33.6139 362.469 33.8646 362.795 34.0469C363.12 34.2292 363.508 34.3203 363.957 34.3203C364.393 34.3203 364.771 34.2292 365.09 34.0469C365.415 33.8646 365.682 33.6139 365.891 33.2949C366.099 32.9759 366.252 32.6048 366.35 32.1816C366.454 31.7585 366.506 31.3092 366.506 30.834V30.6094C366.506 30.1406 366.454 29.6979 366.35 29.2812C366.252 28.8581 366.096 28.4837 365.881 28.1582C365.673 27.8327 365.406 27.5788 365.08 27.3965C364.761 27.2077 364.38 27.1133 363.938 27.1133C363.495 27.1133 363.111 27.2077 362.785 27.3965C362.466 27.5788 362.202 27.8327 361.994 28.1582C361.786 28.4837 361.633 28.8581 361.535 29.2812C361.438 29.6979 361.389 30.1406 361.389 30.6094ZM370.383 30.834V30.6094C370.383 29.8477 370.493 29.1413 370.715 28.4902C370.936 27.8327 371.255 27.263 371.672 26.7812C372.095 26.293 372.609 25.9154 373.215 25.6484C373.827 25.375 374.517 25.2383 375.285 25.2383C376.06 25.2383 376.75 25.375 377.355 25.6484C377.967 25.9154 378.485 26.293 378.908 26.7812C379.331 27.263 379.654 27.8327 379.875 28.4902C380.096 29.1413 380.207 29.8477 380.207 30.6094V30.834C380.207 31.5957 380.096 32.3021 379.875 32.9531C379.654 33.6042 379.331 34.1738 378.908 34.6621C378.485 35.1439 377.971 35.5215 377.365 35.7949C376.76 36.0618 376.073 36.1953 375.305 36.1953C374.53 36.1953 373.837 36.0618 373.225 35.7949C372.619 35.5215 372.105 35.1439 371.682 34.6621C371.258 34.1738 370.936 33.6042 370.715 32.9531C370.493 32.3021 370.383 31.5957 370.383 30.834ZM372.736 30.6094V30.834C372.736 31.3092 372.785 31.7585 372.883 32.1816C372.98 32.6048 373.133 32.9759 373.342 33.2949C373.55 33.6139 373.817 33.8646 374.143 34.0469C374.468 34.2292 374.855 34.3203 375.305 34.3203C375.741 34.3203 376.118 34.2292 376.438 34.0469C376.763 33.8646 377.03 33.6139 377.238 33.2949C377.447 32.9759 377.6 32.6048 377.697 32.1816C377.801 31.7585 377.854 31.3092 377.854 30.834V30.6094C377.854 30.1406 377.801 29.6979 377.697 29.2812C377.6 28.8581 377.443 28.4837 377.229 28.1582C377.02 27.8327 376.753 27.5788 376.428 27.3965C376.109 27.2077 375.728 27.1133 375.285 27.1133C374.842 27.1133 374.458 27.2077 374.133 27.3965C373.814 27.5788 373.55 27.8327 373.342 28.1582C373.133 28.4837 372.98 28.8581 372.883 29.2812C372.785 29.6979 372.736 30.1406 372.736 30.6094ZM388.947 25.4336H391.086V35.707C391.086 36.6576 390.884 37.4648 390.48 38.1289C390.077 38.793 389.514 39.2975 388.791 39.6426C388.068 39.9941 387.232 40.1699 386.281 40.1699C385.878 40.1699 385.428 40.1113 384.934 39.9941C384.445 39.877 383.97 39.6882 383.508 39.4277C383.052 39.1738 382.671 38.8385 382.365 38.4219L383.469 37.0352C383.846 37.4844 384.263 37.8132 384.719 38.0215C385.174 38.2298 385.653 38.334 386.154 38.334C386.695 38.334 387.154 38.2331 387.531 38.0312C387.915 37.8359 388.212 37.5462 388.42 37.1621C388.628 36.778 388.732 36.3092 388.732 35.7559V27.8262L388.947 25.4336ZM381.77 30.834V30.6289C381.77 29.8281 381.867 29.099 382.062 28.4414C382.258 27.7773 382.538 27.2077 382.902 26.7324C383.267 26.2507 383.71 25.8828 384.23 25.6289C384.751 25.3685 385.34 25.2383 385.998 25.2383C386.682 25.2383 387.264 25.362 387.746 25.6094C388.234 25.8568 388.641 26.2116 388.967 26.6738C389.292 27.1296 389.546 27.6764 389.729 28.3145C389.917 28.946 390.057 29.6491 390.148 30.4238V31.0781C390.064 31.8333 389.921 32.5234 389.719 33.1484C389.517 33.7734 389.25 34.3138 388.918 34.7695C388.586 35.2253 388.176 35.5768 387.688 35.8242C387.206 36.0716 386.636 36.1953 385.979 36.1953C385.334 36.1953 384.751 36.0618 384.23 35.7949C383.716 35.528 383.273 35.1536 382.902 34.6719C382.538 34.1901 382.258 33.6237 382.062 32.9727C381.867 32.3151 381.77 31.6022 381.77 30.834ZM384.123 30.6289V30.834C384.123 31.3158 384.169 31.765 384.26 32.1816C384.357 32.5983 384.504 32.9661 384.699 33.2852C384.901 33.5977 385.155 33.8451 385.461 34.0273C385.773 34.2031 386.141 34.291 386.564 34.291C387.118 34.291 387.57 34.1738 387.922 33.9395C388.28 33.7051 388.553 33.3893 388.742 32.9922C388.938 32.5885 389.074 32.1393 389.152 31.6445V29.877C389.113 29.4928 389.032 29.1348 388.908 28.8027C388.791 28.4707 388.632 28.181 388.43 27.9336C388.228 27.6797 387.974 27.4844 387.668 27.3477C387.362 27.2044 387.001 27.1328 386.584 27.1328C386.161 27.1328 385.793 27.224 385.48 27.4062C385.168 27.5885 384.911 27.8392 384.709 28.1582C384.514 28.4772 384.367 28.8483 384.27 29.2715C384.172 29.6947 384.123 30.1471 384.123 30.6289ZM396.047 21V36H393.684V21H396.047ZM403.283 36.1953C402.502 36.1953 401.796 36.0684 401.164 35.8145C400.539 35.554 400.005 35.1927 399.562 34.7305C399.126 34.2682 398.791 33.7246 398.557 33.0996C398.322 32.4746 398.205 31.8008 398.205 31.0781V30.6875C398.205 29.8607 398.326 29.112 398.566 28.4414C398.807 27.7708 399.143 27.1979 399.572 26.7227C400.002 26.2409 400.51 25.873 401.096 25.6191C401.682 25.3652 402.316 25.2383 403 25.2383C403.755 25.2383 404.416 25.3652 404.982 25.6191C405.549 25.873 406.018 26.2311 406.389 26.6934C406.766 27.1491 407.046 27.6927 407.229 28.3242C407.417 28.9557 407.512 29.6523 407.512 30.4141V31.4199H399.348V29.7305H405.188V29.5449C405.174 29.1217 405.09 28.7246 404.934 28.3535C404.784 27.9824 404.553 27.6829 404.24 27.4551C403.928 27.2272 403.511 27.1133 402.99 27.1133C402.6 27.1133 402.251 27.1979 401.945 27.3672C401.646 27.5299 401.395 27.7676 401.193 28.0801C400.992 28.3926 400.835 28.7702 400.725 29.2129C400.62 29.6491 400.568 30.1406 400.568 30.6875V31.0781C400.568 31.5404 400.63 31.9701 400.754 32.3672C400.884 32.7578 401.073 33.0996 401.32 33.3926C401.568 33.6855 401.867 33.9167 402.219 34.0859C402.57 34.2487 402.971 34.3301 403.42 34.3301C403.986 34.3301 404.491 34.2161 404.934 33.9883C405.376 33.7604 405.76 33.4382 406.086 33.0215L407.326 34.2227C407.098 34.5547 406.802 34.8737 406.438 35.1797C406.073 35.4792 405.627 35.7233 405.1 35.9121C404.579 36.1009 403.973 36.1953 403.283 36.1953Z" fill="black" fill-opacity="0.54"/>
</g>
<defs>
<filter id="filter0_dd_45_179" x="0" y="0" width="606" height="62" filterUnits="userSpaceOnUse" color-interpolation-filters="sRGB">
<feFlood flood-opacity="0" result="BackgroundImageFix"/>
<feColorMatrix in="SourceAlpha" type="matrix" values="0 0 0 0 0 0 0 0 0 0 0 0 0 0 0 0 0 0 127 0" result="hardAlpha"/>
<feOffset dy="2"/>
<feGaussianBlur stdDeviation="1.5"/>
<feColorMatrix type="matrix" values="0 0 0 0 0 0 0 0 0 0 0 0 0 0 0 0 0 0 0.168 0"/>
<feBlend mode="normal" in2="BackgroundImageFix" result="effect1_dropShadow_45_179"/>
<feColorMatrix in="SourceAlpha" type="matrix" values="0 0 0 0 0 0 0 0 0 0 0 0 0 0 0 0 0 0 127 0" result="hardAlpha"/>
<feOffset/>
<feGaussianBlur stdDeviation="1.5"/>
<feColorMatrix type="matrix" values="0 0 0 0 0 0 0 0 0 0 0 0 0 0 0 0 0 0 0.084 0"/>
<feBlend mode="normal" in2="effect1_dropShadow_45_179" result="effect2_dropShadow_45_179"/>
<feBlend mode="normal" in="SourceGraphic" in2="effect2_dropShadow_45_179" result="shape"/>
</filter>
</defs>
</svg>
