<svg width="20" height="20" viewBox="0 0 20 20" fill="none" xmlns="http://www.w3.org/2000/svg">
<path d="M10.5 2.15002C13.1864 2.15015 15.3494 4.35871 15.3497 7.02893C15.3497 8.42889 14.7445 9.77182 13.6934 10.693L13.4776 10.8717L10.9082 12.8707C10.8718 12.8991 10.8498 12.9428 10.8497 12.9889V13.4996C10.8497 13.969 10.4694 14.3491 10 14.3492C9.5306 14.3492 9.15043 13.9691 9.15043 13.4996V12.9889C9.15055 12.4181 9.41377 11.8784 9.8643 11.528L12.4336 9.52991L12.5733 9.41467C13.253 8.81877 13.6504 7.94334 13.6504 7.02893C13.6502 5.2814 12.2314 3.84937 10.5 3.84924H9.87895C7.89142 3.84943 6.4005 5.66883 6.79008 7.6178L6.83305 7.83264L6.84672 7.91858C6.88829 8.34734 6.59835 8.74603 6.16703 8.83264C5.73542 8.91896 5.31422 8.66247 5.18754 8.25061L5.16703 8.16663L5.12309 7.95081C4.52316 4.94991 6.81866 2.15021 9.87895 2.15002H10.5Z" fill="black"/>
<circle cx="9.9998" cy="16.7" r="0.6" stroke="black" stroke-width="1.2"/>
</svg>
