<svg width="150" height="41" viewBox="0 0 150 41" fill="none" xmlns="http://www.w3.org/2000/svg">
<mask id="mask0_46_2835" style="mask-type:luminance" maskUnits="userSpaceOnUse" x="0" y="0" width="150" height="41">
<path d="M150 0H0V41H150V0Z" fill="white"/>
</mask>
<g mask="url(#mask0_46_2835)">
<path d="M56.0107 6.43494H58.4526V17.0174H56.0107V6.43494Z" fill="black"/>
<path d="M70.642 6.43494V17.0174H68.6487L63.3862 10.5899V17.0174H60.9742V6.43494H62.9875L68.2201 12.8624V6.43494H70.642Z" fill="black"/>
<path d="M82.8214 6.43494V17.0174H80.8281L75.5681 10.5899V17.0174H73.1561V6.43494H75.1769L80.4219 12.8624V6.43494H82.8214Z" fill="black"/>
<path d="M87.4709 16.4925C86.6165 16.0423 85.9019 15.3651 85.4053 14.535C84.9172 13.6808 84.6605 12.7134 84.6605 11.7288C84.6605 10.7442 84.9172 9.77668 85.4053 8.9225C85.9026 8.09295 86.617 7.41598 87.4709 6.965C88.3873 6.49833 89.4007 6.25513 90.4285 6.25513C91.4564 6.25513 92.4695 6.49833 93.3862 6.965C94.2379 7.41875 94.9517 8.0951 95.4518 8.9225C95.8325 9.55018 96.0817 10.2493 96.1836 10.9769C96.2858 11.7046 96.2387 12.4455 96.0451 13.1542C95.8517 13.863 95.5161 14.5246 95.0589 15.0986C94.6016 15.6727 94.0325 16.147 93.3862 16.4925C92.4695 16.9592 91.4564 17.2024 90.4285 17.2024C89.4007 17.2024 88.3873 16.9592 87.4709 16.4925ZM92.1204 14.685C92.6187 14.4025 93.0286 13.9861 93.304 13.4825C93.584 12.942 93.7303 12.3417 93.7303 11.7325C93.7303 11.1233 93.584 10.523 93.304 9.98248C93.0286 9.47893 92.6187 9.06248 92.1204 8.78C91.6021 8.49773 91.0218 8.34988 90.4323 8.34988C89.8425 8.34988 89.2622 8.49773 88.7442 8.78C88.2458 9.06248 87.8359 9.47893 87.5606 9.98248C87.2803 10.523 87.134 11.1233 87.134 11.7325C87.134 12.3417 87.2803 12.942 87.5606 13.4825C87.8359 13.9861 88.2458 14.4025 88.7442 14.685C89.2619 14.9688 89.8423 15.1175 90.4323 15.1175C91.0221 15.1175 91.6026 14.9688 92.1204 14.685Z" fill="black"/>
<path d="M105.045 6.90489C105.693 7.18302 106.247 7.64532 106.637 8.23489C107.001 8.85179 107.193 9.55552 107.193 10.2724C107.193 10.9893 107.001 11.693 106.637 12.3099C106.25 12.9028 105.696 13.3667 105.045 13.6424C104.275 13.9655 103.445 14.1223 102.61 14.1024H100.488V17.0174H98.0432V6.43489H102.606C103.443 6.41489 104.275 6.57514 105.045 6.90489ZM104.148 11.6299C104.341 11.4641 104.493 11.2557 104.593 11.0211C104.692 10.7864 104.736 10.5319 104.721 10.2774C104.737 10.0202 104.694 9.76277 104.594 9.52517C104.495 9.28754 104.342 9.07614 104.148 8.90739C103.766 8.59072 103.208 8.43239 102.476 8.43239H100.483V12.1074H102.476C103.208 12.1074 103.766 11.9482 104.148 11.6299Z" fill="black"/>
<path d="M111.224 16.4925C110.371 16.0422 109.657 15.365 109.161 14.535C108.781 13.9074 108.532 13.2085 108.43 12.481C108.328 11.7535 108.374 11.0128 108.568 10.3042C108.761 9.59558 109.096 8.93395 109.553 8.3598C110.01 7.78563 110.578 7.31103 111.224 6.96503C112.141 6.49833 113.155 6.25513 114.183 6.25513C115.211 6.25513 116.225 6.49833 117.142 6.96503C118.003 7.42515 118.723 8.11153 119.225 8.95063C119.727 9.78975 119.992 10.7501 119.992 11.7288C119.992 12.7075 119.727 13.6678 119.225 14.5069C118.723 15.346 118.003 16.0324 117.142 16.4925C116.225 16.9592 115.211 17.2024 114.183 17.2024C113.155 17.2024 112.141 16.9592 111.224 16.4925ZM115.876 14.685C116.374 14.4018 116.784 13.9855 117.06 13.4825C117.34 12.942 117.486 12.3418 117.486 11.7325C117.486 11.1233 117.34 10.523 117.06 9.9825C116.784 9.4795 116.374 9.06323 115.876 8.78C115.358 8.49775 114.778 8.3499 114.188 8.3499C113.599 8.3499 113.018 8.49775 112.5 8.78C112.002 9.0625 111.592 9.47895 111.316 9.9825C111.035 10.5225 110.887 11.123 110.887 11.7325C110.887 12.3421 111.035 12.9425 111.316 13.4825C111.592 13.9861 112.002 14.4025 112.5 14.685C113.018 14.9688 113.598 15.1176 114.188 15.1176C114.778 15.1176 115.358 14.9688 115.876 14.685Z" fill="black"/>
<path d="M121.792 6.43494H124.233V15.0174H129.523V17.0174H121.799L121.792 6.43494Z" fill="black"/>
<path d="M130.904 6.43494H133.346V17.0174H130.904V6.43494Z" fill="black"/>
<path d="M136.894 16.8625C136.219 16.6873 135.583 16.3871 135.017 15.9775L135.847 14.1325C136.338 14.4849 136.882 14.7558 137.459 14.935C138.063 15.1339 138.693 15.236 139.328 15.2375C140.021 15.2375 140.533 15.1341 140.865 14.9275C141.015 14.848 141.141 14.7293 141.228 14.584C141.316 14.4387 141.363 14.2723 141.364 14.1025C141.365 13.9824 141.339 13.8636 141.288 13.755C141.237 13.6463 141.163 13.5506 141.07 13.475C140.848 13.2952 140.595 13.1594 140.322 13.075C140.016 12.975 139.602 12.8625 139.076 12.7425C138.408 12.5909 137.749 12.3989 137.103 12.1675C136.592 11.9763 136.138 11.659 135.782 11.245C135.398 10.7667 135.203 10.1633 135.234 9.54995C135.229 8.95563 135.403 8.37355 135.733 7.87995C136.106 7.34693 136.625 6.93433 137.228 6.69245C138.005 6.37983 138.839 6.2309 139.677 6.25495C140.343 6.25623 141.007 6.3402 141.653 6.50495C142.248 6.6455 142.818 6.88008 143.34 7.19995L142.592 9.05995C141.707 8.53038 140.698 8.2433 139.667 8.22745C138.984 8.22745 138.478 8.33995 138.152 8.55995C138 8.65005 137.874 8.77838 137.787 8.93228C137.699 9.08618 137.653 9.26033 137.654 9.43745C137.653 9.61415 137.707 9.7867 137.808 9.93163C137.909 10.0766 138.051 10.1869 138.217 10.2475C138.773 10.4788 139.352 10.653 139.944 10.7675C140.613 10.9206 141.273 11.1126 141.919 11.3425C142.426 11.5324 142.879 11.844 143.238 12.25C143.624 12.7212 143.821 13.3206 143.788 13.93C143.794 14.5197 143.62 15.0972 143.29 15.585C142.91 16.1192 142.384 16.5317 141.775 16.7725C140.994 17.0845 140.158 17.2334 139.318 17.21C138.498 17.2106 137.681 17.0936 136.894 16.8625Z" fill="black"/>
<path d="M57.1894 33.3824C56.3489 32.5489 55.9336 31.3549 55.9435 29.7999V23.8699H58.3854V29.7074C58.3854 31.6057 59.1695 32.554 60.7376 32.5525C61.5 32.5525 62.0816 32.3224 62.4817 31.8624C62.8854 31.4049 63.0847 30.6874 63.0847 29.7074V23.8699H65.4792V29.7999C65.4792 31.3514 65.0641 32.5457 64.2334 33.3824C63.4029 34.2189 62.2301 34.6357 60.7151 34.6324C59.2037 34.6374 58.0283 34.2207 57.1894 33.3824Z" fill="black"/>
<path d="M77.5764 23.8699V34.4574H75.5831L70.3231 28.0299V34.4574H67.9111V23.8699H69.9319L75.1645 30.2974V23.8699H77.5764Z" fill="black"/>
<path d="M80.0781 23.8699H82.52V34.4574H80.0781V23.8699Z" fill="black"/>
<path d="M95.1055 23.8699L90.5383 34.4574H88.1263L83.574 23.8699H86.2127L89.422 31.4324L92.6786 23.8699H95.1055Z" fill="black"/>
<path d="M104.148 32.4924V34.4574H95.9801V23.8699H103.954V25.8374H98.407V28.1349H103.306V30.0424H98.407V32.4924H104.148Z" fill="black"/>
<path d="M112.821 34.4575L110.786 31.5075H108.543V34.4575H106.094V23.8699H110.661C111.497 23.8509 112.327 24.0111 113.096 24.3399C113.754 24.6144 114.313 25.0848 114.697 25.6878C115.081 26.2908 115.272 26.9975 115.243 27.7125C115.272 28.427 115.078 29.1325 114.688 29.7315C114.299 30.3305 113.734 30.793 113.071 31.055L115.438 34.4575H112.821ZM112.204 26.345C111.82 26.0283 111.262 25.869 110.529 25.8675H108.536V29.5575H110.529C111.262 29.5575 111.82 29.3975 112.204 29.0725C112.384 28.8945 112.528 28.6825 112.626 28.4483C112.724 28.214 112.774 27.9628 112.774 27.7088C112.774 27.4548 112.724 27.2033 112.626 26.969C112.528 26.735 112.384 26.5228 112.204 26.345Z" fill="black"/>
<path d="M118.218 34.2976C117.544 34.1216 116.908 33.8223 116.342 33.4151L117.172 31.5701C117.663 31.9216 118.207 32.1918 118.784 32.3701C119.387 32.5688 120.018 32.6711 120.653 32.6726C121.345 32.6726 121.858 32.5691 122.19 32.3626C122.34 32.2833 122.466 32.1648 122.553 32.0196C122.641 31.8741 122.688 31.7076 122.689 31.5376C122.69 31.4176 122.664 31.2986 122.613 31.1901C122.562 31.0813 122.487 30.9856 122.394 30.9101C122.173 30.7303 121.919 30.5946 121.647 30.5101C121.34 30.4101 120.927 30.2976 120.401 30.1776C119.732 30.0256 119.074 29.8336 118.428 29.6026C117.917 29.4138 117.463 29.0961 117.11 28.6801C116.723 28.2038 116.527 27.6006 116.559 26.9876C116.553 26.3923 116.727 25.8093 117.057 25.3151C117.431 24.7826 117.95 24.3701 118.552 24.1275C119.33 23.8149 120.164 23.666 121.002 23.69C121.668 23.6911 122.332 23.7751 122.978 23.94C123.573 24.0806 124.142 24.3151 124.664 24.635L123.917 26.4951C123.031 25.9651 122.022 25.6781 120.992 25.6626C120.309 25.6626 119.803 25.7751 119.477 25.9951C119.325 26.0851 119.199 26.2136 119.111 26.3673C119.024 26.5213 118.978 26.6953 118.978 26.8726C118.978 27.0496 119.032 27.2226 119.133 27.3676C119.234 27.5126 119.378 27.6226 119.544 27.6826C120.1 27.9138 120.677 28.0888 121.268 28.2051C121.938 28.3563 122.597 28.5476 123.244 28.7776C123.751 28.9668 124.204 29.2786 124.562 29.6851C124.948 30.1563 125.145 30.7556 125.113 31.3651C125.119 31.9548 124.945 32.5323 124.615 33.0201C124.234 33.5543 123.708 33.9668 123.1 34.2076C122.319 34.5206 121.483 34.6703 120.643 34.6476C119.822 34.6473 119.006 34.5296 118.218 34.2976Z" fill="black"/>
<path d="M126.787 23.8699H129.229V34.4574H126.787V23.8699Z" fill="black"/>
<path d="M133.916 25.8675H130.54V23.8674H139.732V25.8675H136.356V34.4575H133.914L133.916 25.8675Z" fill="black"/>
<path d="M145.916 30.7074V34.4574H143.469V30.6774L139.383 23.8699H141.974L144.792 28.5749L147.61 23.8699H150.008L145.916 30.7074Z" fill="black"/>
<path d="M11.4169 14.64H0V40.9875H11.4169V14.64Z" fill="#40BA21"/>
<path d="M29.6834 -0.25V29.5325H26.2598V-0.25H14.8429V40.9875H17.2723H26.2598H29.6834H37.4126H41.1003V-0.25H29.6834Z" fill="#40BA21"/>
<path d="M11.4169 -0.25H0V11.205H11.4169V-0.25Z" fill="#40BA21"/>
</g>
</svg>
