<svg width="15" height="16" viewBox="0 0 15 16" fill="none" xmlns="http://www.w3.org/2000/svg">
<g clip-path="url(#clip0_85_479)">
<path fill-rule="evenodd" clip-rule="evenodd" d="M15 8C15 12.1421 11.6421 15.5 7.5 15.5C3.35786 15.5 0 12.1421 0 8C0 3.85786 3.35786 0.5 7.5 0.5C11.6421 0.5 15 3.85786 15 8ZM7.76877 6.03683C7.03928 6.34025 5.58134 6.96825 3.39493 7.92083C3.0399 8.06201 2.85391 8.20013 2.83698 8.33519C2.80837 8.56343 3.09419 8.65331 3.48342 8.7757C3.53636 8.79235 3.59122 8.8096 3.64746 8.82788C4.0304 8.95236 4.54552 9.09798 4.8133 9.10377C5.05621 9.10902 5.32733 9.00887 5.62665 8.80334C7.66947 7.42438 8.72399 6.72738 8.79019 6.71235C8.8369 6.70175 8.90162 6.68843 8.94548 6.7274C8.98933 6.76638 8.98502 6.8402 8.98038 6.86C8.95206 6.98071 7.83008 8.02381 7.24945 8.56361C7.06844 8.73189 6.94005 8.85126 6.9138 8.87852C6.855 8.93959 6.79508 8.99736 6.73749 9.05288C6.38173 9.39583 6.11494 9.65301 6.75226 10.073C7.05853 10.2748 7.3036 10.4417 7.5481 10.6082C7.81511 10.7901 8.08143 10.9714 8.42601 11.1973C8.5138 11.2548 8.59764 11.3146 8.67931 11.3728C8.99005 11.5944 9.26922 11.7934 9.61412 11.7616C9.81453 11.7432 10.0215 11.5548 10.1267 10.9927C10.3751 9.66446 10.8635 6.78653 10.9764 5.60061C10.9863 5.49671 10.9738 5.36373 10.9638 5.30536C10.9539 5.24699 10.933 5.16382 10.8571 5.10225C10.7672 5.02934 10.6285 5.01396 10.5665 5.01505C10.2844 5.02002 9.8516 5.17051 7.76877 6.03683Z" fill="#40BA21"/>
</g>
<defs>
<clipPath id="clip0_85_479">
<rect width="15" height="15" fill="white" transform="translate(0 0.5)"/>
</clipPath>
</defs>
</svg>
