<svg width="25" height="25" viewBox="0 0 25 25" fill="none" xmlns="http://www.w3.org/2000/svg">
<path fill-rule="evenodd" clip-rule="evenodd" d="M4.08496 12.5C4.08496 17.0121 7.74277 20.6699 12.2549 20.6699C16.767 20.6699 20.4248 17.0121 20.4248 12.5C20.4248 7.98785 16.767 4.33005 12.2549 4.33005C7.74277 4.33005 4.08496 7.98785 4.08496 12.5ZM12.2549 22.7124C6.61474 22.7124 2.04248 18.1401 2.04248 12.5C2.04248 6.85982 6.61474 2.28756 12.2549 2.28756C17.8951 2.28756 22.4673 6.85982 22.4673 12.5C22.4673 18.1401 17.8951 22.7124 12.2549 22.7124ZM10.5115 16.2858C10.1127 15.887 10.1127 15.2404 10.5115 14.8416L12.8531 12.5L10.5115 10.1584C10.1127 9.75957 10.1127 9.11295 10.5115 8.71413C10.9103 8.31531 11.557 8.31531 11.9558 8.71413L15.0195 11.7779C15.211 11.9694 15.3186 12.2291 15.3186 12.5C15.3186 12.7708 15.211 13.0306 15.0195 13.2221L11.9558 16.2858C11.557 16.6847 10.9103 16.6847 10.5115 16.2858Z" fill="#298217"/>
</svg>
