<svg width="606" height="62" viewBox="0 0 606 62" fill="none" xmlns="http://www.w3.org/2000/svg">
<g filter="url(#filter0_dd_0_1)">
<rect x="3" y="3" width="600" height="54" rx="10" fill="white"/>
<rect x="180.5" y="3" width="244" height="54" rx="10" fill="white"/>
<rect width="24" height="24" transform="translate(195.5 18)" fill="white"/>
<path d="M243.426 32.3379C243.426 32.0449 243.38 31.7845 243.289 31.5566C243.204 31.3288 243.051 31.1204 242.83 30.9316C242.609 30.7428 242.296 30.5605 241.893 30.3848C241.495 30.2025 240.988 30.0169 240.369 29.8281C239.692 29.6198 239.067 29.3887 238.494 29.1348C237.928 28.8743 237.433 28.5749 237.01 28.2363C236.587 27.8913 236.258 27.4974 236.023 27.0547C235.789 26.6055 235.672 26.0879 235.672 25.502C235.672 24.9225 235.792 24.3952 236.033 23.9199C236.281 23.4447 236.629 23.0345 237.078 22.6895C237.534 22.3379 238.071 22.0677 238.689 21.8789C239.308 21.6836 239.992 21.5859 240.74 21.5859C241.795 21.5859 242.703 21.7812 243.465 22.1719C244.233 22.5625 244.822 23.0866 245.232 23.7441C245.649 24.4017 245.857 25.1276 245.857 25.9219H243.426C243.426 25.4531 243.325 25.0397 243.123 24.6816C242.928 24.3171 242.628 24.0306 242.225 23.8223C241.827 23.6139 241.323 23.5098 240.711 23.5098C240.132 23.5098 239.65 23.5977 239.266 23.7734C238.882 23.9492 238.595 24.1868 238.406 24.4863C238.217 24.7858 238.123 25.1243 238.123 25.502C238.123 25.7689 238.185 26.013 238.309 26.2344C238.432 26.4492 238.621 26.651 238.875 26.8398C239.129 27.0221 239.448 27.1947 239.832 27.3574C240.216 27.5202 240.669 27.6764 241.189 27.8262C241.977 28.0605 242.664 28.321 243.25 28.6074C243.836 28.8874 244.324 29.2064 244.715 29.5645C245.105 29.9225 245.398 30.3294 245.594 30.7852C245.789 31.2344 245.887 31.7454 245.887 32.3184C245.887 32.9173 245.766 33.4577 245.525 33.9395C245.285 34.4147 244.939 34.8216 244.49 35.1602C244.048 35.4922 243.514 35.7493 242.889 35.9316C242.27 36.1074 241.58 36.1953 240.818 36.1953C240.135 36.1953 239.461 36.1042 238.797 35.9219C238.139 35.7396 237.54 35.4629 237 35.0918C236.46 34.7142 236.03 34.2454 235.711 33.6855C235.392 33.1191 235.232 32.4583 235.232 31.7031H237.684C237.684 32.1654 237.762 32.5592 237.918 32.8848C238.081 33.2103 238.305 33.4772 238.592 33.6855C238.878 33.8874 239.21 34.0371 239.588 34.1348C239.972 34.2324 240.382 34.2812 240.818 34.2812C241.391 34.2812 241.87 34.1999 242.254 34.0371C242.645 33.8743 242.938 33.6465 243.133 33.3535C243.328 33.0605 243.426 32.722 243.426 32.3379ZM250.34 25.4336V36H247.977V25.4336H250.34ZM247.82 22.6602C247.82 22.3021 247.938 22.0059 248.172 21.7715C248.413 21.5306 248.745 21.4102 249.168 21.4102C249.585 21.4102 249.913 21.5306 250.154 21.7715C250.395 22.0059 250.516 22.3021 250.516 22.6602C250.516 23.0117 250.395 23.3047 250.154 23.5391C249.913 23.7734 249.585 23.8906 249.168 23.8906C248.745 23.8906 248.413 23.7734 248.172 23.5391C247.938 23.3047 247.82 23.0117 247.82 22.6602ZM259.686 25.4336H261.824V35.707C261.824 36.6576 261.622 37.4648 261.219 38.1289C260.815 38.793 260.252 39.2975 259.529 39.6426C258.807 39.9941 257.97 40.1699 257.02 40.1699C256.616 40.1699 256.167 40.1113 255.672 39.9941C255.184 39.877 254.708 39.6882 254.246 39.4277C253.79 39.1738 253.41 38.8385 253.104 38.4219L254.207 37.0352C254.585 37.4844 255.001 37.8132 255.457 38.0215C255.913 38.2298 256.391 38.334 256.893 38.334C257.433 38.334 257.892 38.2331 258.27 38.0312C258.654 37.8359 258.95 37.5462 259.158 37.1621C259.367 36.778 259.471 36.3092 259.471 35.7559V27.8262L259.686 25.4336ZM252.508 30.834V30.6289C252.508 29.8281 252.605 29.099 252.801 28.4414C252.996 27.7773 253.276 27.2077 253.641 26.7324C254.005 26.2507 254.448 25.8828 254.969 25.6289C255.49 25.3685 256.079 25.2383 256.736 25.2383C257.42 25.2383 258.003 25.362 258.484 25.6094C258.973 25.8568 259.38 26.2116 259.705 26.6738C260.031 27.1296 260.285 27.6764 260.467 28.3145C260.656 28.946 260.796 29.6491 260.887 30.4238V31.0781C260.802 31.8333 260.659 32.5234 260.457 33.1484C260.255 33.7734 259.988 34.3138 259.656 34.7695C259.324 35.2253 258.914 35.5768 258.426 35.8242C257.944 36.0716 257.374 36.1953 256.717 36.1953C256.072 36.1953 255.49 36.0618 254.969 35.7949C254.454 35.528 254.012 35.1536 253.641 34.6719C253.276 34.1901 252.996 33.6237 252.801 32.9727C252.605 32.3151 252.508 31.6022 252.508 30.834ZM254.861 30.6289V30.834C254.861 31.3158 254.907 31.765 254.998 32.1816C255.096 32.5983 255.242 32.9661 255.438 33.2852C255.639 33.5977 255.893 33.8451 256.199 34.0273C256.512 34.2031 256.88 34.291 257.303 34.291C257.856 34.291 258.309 34.1738 258.66 33.9395C259.018 33.7051 259.292 33.3893 259.48 32.9922C259.676 32.5885 259.812 32.1393 259.891 31.6445V29.877C259.852 29.4928 259.77 29.1348 259.646 28.8027C259.529 28.4707 259.37 28.181 259.168 27.9336C258.966 27.6797 258.712 27.4844 258.406 27.3477C258.1 27.2044 257.739 27.1328 257.322 27.1328C256.899 27.1328 256.531 27.224 256.219 27.4062C255.906 27.5885 255.649 27.8392 255.447 28.1582C255.252 28.4772 255.105 28.8483 255.008 29.2715C254.91 29.6947 254.861 30.1471 254.861 30.6289ZM266.6 27.6895V36H264.246V25.4336H266.463L266.6 27.6895ZM266.18 30.3262L265.418 30.3164C265.424 29.5677 265.529 28.8809 265.73 28.2559C265.939 27.6309 266.225 27.0938 266.59 26.6445C266.961 26.1953 267.404 25.8503 267.918 25.6094C268.432 25.362 269.005 25.2383 269.637 25.2383C270.145 25.2383 270.604 25.3099 271.014 25.4531C271.43 25.5898 271.785 25.8145 272.078 26.127C272.378 26.4395 272.605 26.8464 272.762 27.3477C272.918 27.8424 272.996 28.4512 272.996 29.1738V36H270.633V29.1641C270.633 28.6562 270.558 28.2559 270.408 27.9629C270.265 27.6634 270.053 27.4518 269.773 27.3281C269.5 27.1979 269.158 27.1328 268.748 27.1328C268.344 27.1328 267.983 27.2174 267.664 27.3867C267.345 27.556 267.075 27.7871 266.854 28.0801C266.639 28.373 266.473 28.7116 266.355 29.0957C266.238 29.4798 266.18 29.89 266.18 30.3262ZM283.23 21.7812V36H280.779V21.7812H283.23ZM288.377 27.6895V36H286.023V25.4336H288.24L288.377 27.6895ZM287.957 30.3262L287.195 30.3164C287.202 29.5677 287.306 28.8809 287.508 28.2559C287.716 27.6309 288.003 27.0938 288.367 26.6445C288.738 26.1953 289.181 25.8503 289.695 25.6094C290.21 25.362 290.783 25.2383 291.414 25.2383C291.922 25.2383 292.381 25.3099 292.791 25.4531C293.208 25.5898 293.562 25.8145 293.855 26.127C294.155 26.4395 294.383 26.8464 294.539 27.3477C294.695 27.8424 294.773 28.4512 294.773 29.1738V36H292.41V29.1641C292.41 28.6562 292.335 28.2559 292.186 27.9629C292.042 27.6634 291.831 27.4518 291.551 27.3281C291.277 27.1979 290.936 27.1328 290.525 27.1328C290.122 27.1328 289.76 27.2174 289.441 27.3867C289.122 27.556 288.852 27.7871 288.631 28.0801C288.416 28.373 288.25 28.7116 288.133 29.0957C288.016 29.4798 287.957 29.89 287.957 30.3262ZM305.027 33.6562L307.469 25.4336H308.973L308.562 27.8945L306.102 36H304.754L305.027 33.6562ZM303.592 25.4336L305.496 33.6953L305.652 36H304.148L301.287 25.4336H303.592ZM311.258 33.5977L313.104 25.4336H315.398L312.547 36H311.043L311.258 33.5977ZM309.227 25.4336L311.639 33.5586L311.941 36H310.594L308.104 27.8848L307.693 25.4336H309.227ZM319.52 25.4336V36H317.156V25.4336H319.52ZM317 22.6602C317 22.3021 317.117 22.0059 317.352 21.7715C317.592 21.5306 317.924 21.4102 318.348 21.4102C318.764 21.4102 319.093 21.5306 319.334 21.7715C319.575 22.0059 319.695 22.3021 319.695 22.6602C319.695 23.0117 319.575 23.3047 319.334 23.5391C319.093 23.7734 318.764 23.8906 318.348 23.8906C317.924 23.8906 317.592 23.7734 317.352 23.5391C317.117 23.3047 317 23.0117 317 22.6602ZM326.941 25.4336V27.1523H320.984V25.4336H326.941ZM322.703 22.8457H325.057V33.0801C325.057 33.4056 325.102 33.6562 325.193 33.832C325.291 34.0013 325.424 34.1152 325.594 34.1738C325.763 34.2324 325.962 34.2617 326.189 34.2617C326.352 34.2617 326.508 34.252 326.658 34.2324C326.808 34.2129 326.928 34.1934 327.02 34.1738L327.029 35.9707C326.834 36.0293 326.606 36.0814 326.346 36.127C326.092 36.1725 325.799 36.1953 325.467 36.1953C324.926 36.1953 324.448 36.1009 324.031 35.9121C323.615 35.7168 323.289 35.401 323.055 34.9648C322.82 34.5286 322.703 33.9492 322.703 33.2266V22.8457ZM331.082 21V36H328.738V21H331.082ZM330.672 30.3262L329.91 30.3164C329.917 29.5872 330.018 28.9134 330.213 28.2949C330.415 27.6764 330.695 27.1393 331.053 26.6836C331.417 26.2214 331.854 25.8665 332.361 25.6191C332.869 25.3652 333.432 25.2383 334.051 25.2383C334.572 25.2383 335.04 25.3099 335.457 25.4531C335.88 25.5964 336.245 25.8275 336.551 26.1465C336.857 26.459 337.088 26.8691 337.244 27.377C337.407 27.8783 337.488 28.4902 337.488 29.2129V36H335.125V29.1934C335.125 28.6855 335.05 28.2819 334.9 27.9824C334.757 27.6829 334.546 27.4681 334.266 27.3379C333.986 27.2012 333.644 27.1328 333.24 27.1328C332.817 27.1328 332.443 27.2174 332.117 27.3867C331.798 27.556 331.531 27.7871 331.316 28.0801C331.102 28.373 330.939 28.7116 330.828 29.0957C330.724 29.4798 330.672 29.89 330.672 30.3262ZM346.443 21.7812L349.744 28.5684L353.045 21.7812H355.76L350.975 30.7656V36H348.504V30.7656L343.719 21.7812H346.443ZM362.352 33.8809V28.8418C362.352 28.4642 362.283 28.1387 362.146 27.8652C362.01 27.5918 361.801 27.3802 361.521 27.2305C361.248 27.0807 360.903 27.0059 360.486 27.0059C360.102 27.0059 359.77 27.071 359.49 27.2012C359.21 27.3314 358.992 27.5072 358.836 27.7285C358.68 27.9499 358.602 28.2005 358.602 28.4805H356.258C356.258 28.0638 356.359 27.6602 356.561 27.2695C356.762 26.8789 357.055 26.5306 357.439 26.2246C357.824 25.9186 358.283 25.6777 358.816 25.502C359.35 25.3262 359.949 25.2383 360.613 25.2383C361.408 25.2383 362.111 25.3717 362.723 25.6387C363.341 25.9056 363.826 26.3092 364.178 26.8496C364.536 27.3835 364.715 28.054 364.715 28.8613V33.5586C364.715 34.0404 364.747 34.4733 364.812 34.8574C364.884 35.235 364.985 35.5638 365.115 35.8438V36H362.703C362.592 35.7461 362.505 35.4238 362.439 35.0332C362.381 34.6361 362.352 34.252 362.352 33.8809ZM362.693 29.5742L362.713 31.0293H361.023C360.587 31.0293 360.203 31.0716 359.871 31.1562C359.539 31.2344 359.262 31.3516 359.041 31.5078C358.82 31.6641 358.654 31.8529 358.543 32.0742C358.432 32.2956 358.377 32.5462 358.377 32.8262C358.377 33.1061 358.442 33.3633 358.572 33.5977C358.702 33.8255 358.891 34.0046 359.139 34.1348C359.393 34.265 359.699 34.3301 360.057 34.3301C360.538 34.3301 360.958 34.2324 361.316 34.0371C361.681 33.8353 361.967 33.5911 362.176 33.3047C362.384 33.0117 362.495 32.735 362.508 32.4746L363.27 33.5195C363.191 33.7865 363.058 34.0729 362.869 34.3789C362.68 34.6849 362.433 34.9779 362.127 35.2578C361.827 35.5312 361.466 35.7559 361.043 35.9316C360.626 36.1074 360.145 36.1953 359.598 36.1953C358.908 36.1953 358.292 36.0586 357.752 35.7852C357.212 35.5052 356.788 35.1309 356.482 34.6621C356.176 34.1868 356.023 33.6497 356.023 33.0508C356.023 32.4909 356.128 31.9961 356.336 31.5664C356.551 31.1302 356.863 30.7656 357.273 30.4727C357.69 30.1797 358.198 29.9583 358.797 29.8086C359.396 29.6523 360.079 29.5742 360.848 29.5742H362.693ZM369.51 27.6895V36H367.156V25.4336H369.373L369.51 27.6895ZM369.09 30.3262L368.328 30.3164C368.335 29.5677 368.439 28.8809 368.641 28.2559C368.849 27.6309 369.135 27.0938 369.5 26.6445C369.871 26.1953 370.314 25.8503 370.828 25.6094C371.342 25.362 371.915 25.2383 372.547 25.2383C373.055 25.2383 373.514 25.3099 373.924 25.4531C374.34 25.5898 374.695 25.8145 374.988 26.127C375.288 26.4395 375.516 26.8464 375.672 27.3477C375.828 27.8424 375.906 28.4512 375.906 29.1738V36H373.543V29.1641C373.543 28.6562 373.468 28.2559 373.318 27.9629C373.175 27.6634 372.964 27.4518 372.684 27.3281C372.41 27.1979 372.068 27.1328 371.658 27.1328C371.255 27.1328 370.893 27.2174 370.574 27.3867C370.255 27.556 369.985 27.7871 369.764 28.0801C369.549 28.373 369.383 28.7116 369.266 29.0957C369.148 29.4798 369.09 29.89 369.09 30.3262ZM384.754 33.8125V21H387.117V36H384.979L384.754 33.8125ZM377.879 30.834V30.6289C377.879 29.8281 377.973 29.099 378.162 28.4414C378.351 27.7773 378.624 27.2077 378.982 26.7324C379.34 26.2507 379.777 25.8828 380.291 25.6289C380.805 25.3685 381.385 25.2383 382.029 25.2383C382.667 25.2383 383.227 25.362 383.709 25.6094C384.191 25.8568 384.601 26.2116 384.939 26.6738C385.278 27.1296 385.548 27.6764 385.75 28.3145C385.952 28.946 386.095 29.6491 386.18 30.4238V31.0781C386.095 31.8333 385.952 32.5234 385.75 33.1484C385.548 33.7734 385.278 34.3138 384.939 34.7695C384.601 35.2253 384.188 35.5768 383.699 35.8242C383.217 36.0716 382.654 36.1953 382.01 36.1953C381.372 36.1953 380.796 36.0618 380.281 35.7949C379.773 35.528 379.34 35.1536 378.982 34.6719C378.624 34.1901 378.351 33.6237 378.162 32.9727C377.973 32.3151 377.879 31.6022 377.879 30.834ZM380.232 30.6289V30.834C380.232 31.3158 380.275 31.765 380.359 32.1816C380.451 32.5983 380.59 32.9661 380.779 33.2852C380.968 33.5977 381.212 33.8451 381.512 34.0273C381.818 34.2031 382.182 34.291 382.605 34.291C383.139 34.291 383.579 34.1738 383.924 33.9395C384.269 33.7051 384.539 33.3893 384.734 32.9922C384.936 32.5885 385.073 32.1393 385.145 31.6445V29.877C385.105 29.4928 385.024 29.1348 384.9 28.8027C384.783 28.4707 384.624 28.181 384.422 27.9336C384.22 27.6797 383.969 27.4844 383.67 27.3477C383.377 27.2044 383.029 27.1328 382.625 27.1328C382.195 27.1328 381.831 27.224 381.531 27.4062C381.232 27.5885 380.984 27.8392 380.789 28.1582C380.6 28.4772 380.46 28.8483 380.369 29.2715C380.278 29.6947 380.232 30.1471 380.232 30.6289ZM394.236 36.1953C393.455 36.1953 392.749 36.0684 392.117 35.8145C391.492 35.554 390.958 35.1927 390.516 34.7305C390.079 34.2682 389.744 33.7246 389.51 33.0996C389.275 32.4746 389.158 31.8008 389.158 31.0781V30.6875C389.158 29.8607 389.279 29.112 389.52 28.4414C389.76 27.7708 390.096 27.1979 390.525 26.7227C390.955 26.2409 391.463 25.873 392.049 25.6191C392.635 25.3652 393.27 25.2383 393.953 25.2383C394.708 25.2383 395.369 25.3652 395.936 25.6191C396.502 25.873 396.971 26.2311 397.342 26.6934C397.719 27.1491 397.999 27.6927 398.182 28.3242C398.37 28.9557 398.465 29.6523 398.465 30.4141V31.4199H390.301V29.7305H396.141V29.5449C396.128 29.1217 396.043 28.7246 395.887 28.3535C395.737 27.9824 395.506 27.6829 395.193 27.4551C394.881 27.2272 394.464 27.1133 393.943 27.1133C393.553 27.1133 393.204 27.1979 392.898 27.3672C392.599 27.5299 392.348 27.7676 392.146 28.0801C391.945 28.3926 391.788 28.7702 391.678 29.2129C391.574 29.6491 391.521 30.1406 391.521 30.6875V31.0781C391.521 31.5404 391.583 31.9701 391.707 32.3672C391.837 32.7578 392.026 33.0996 392.273 33.3926C392.521 33.6855 392.82 33.9167 393.172 34.0859C393.523 34.2487 393.924 34.3301 394.373 34.3301C394.939 34.3301 395.444 34.2161 395.887 33.9883C396.329 33.7604 396.714 33.4382 397.039 33.0215L398.279 34.2227C398.051 34.5547 397.755 34.8737 397.391 35.1797C397.026 35.4792 396.58 35.7233 396.053 35.9121C395.532 36.1009 394.926 36.1953 394.236 36.1953ZM402.098 25.4336L404.109 28.9395L406.16 25.4336H408.748L405.545 30.6191L408.875 36H406.287L404.139 32.3477L401.99 36H399.393L402.713 30.6191L399.52 25.4336H402.098Z" fill="black" fill-opacity="0.54"/>
</g>
<g clip-path="url(#clip0_0_1)">
<path d="M209 40.9755C215.614 40.9755 220.976 35.6139 220.976 29C220.976 22.3861 215.614 17.0244 209 17.0244C202.386 17.0244 197.024 22.3861 197.024 29C197.024 35.6139 202.386 40.9755 209 40.9755Z" fill="#FC3F1D"/>
<path d="M210.319 34.1151V36.6801H207.698V32.3601L202.76 21.5601H205.498L209.344 29.9976C210.083 31.6176 210.319 32.1744 210.319 34.1151ZM215.24 21.5601L212.032 28.8669H209.361L212.586 21.5601H215.24Z" fill="white"/>
</g>
<defs>
<filter id="filter0_dd_0_1" x="0" y="0" width="606" height="62" filterUnits="userSpaceOnUse" color-interpolation-filters="sRGB">
<feFlood flood-opacity="0" result="BackgroundImageFix"/>
<feColorMatrix in="SourceAlpha" type="matrix" values="0 0 0 0 0 0 0 0 0 0 0 0 0 0 0 0 0 0 127 0" result="hardAlpha"/>
<feOffset dy="2"/>
<feGaussianBlur stdDeviation="1.5"/>
<feColorMatrix type="matrix" values="0 0 0 0 0 0 0 0 0 0 0 0 0 0 0 0 0 0 0.168 0"/>
<feBlend mode="normal" in2="BackgroundImageFix" result="effect1_dropShadow_0_1"/>
<feColorMatrix in="SourceAlpha" type="matrix" values="0 0 0 0 0 0 0 0 0 0 0 0 0 0 0 0 0 0 127 0" result="hardAlpha"/>
<feOffset/>
<feGaussianBlur stdDeviation="1.5"/>
<feColorMatrix type="matrix" values="0 0 0 0 0 0 0 0 0 0 0 0 0 0 0 0 0 0 0.084 0"/>
<feBlend mode="normal" in2="effect1_dropShadow_0_1" result="effect2_dropShadow_0_1"/>
<feBlend mode="normal" in="SourceGraphic" in2="effect2_dropShadow_0_1" result="shape"/>
</filter>
<clipPath id="clip0_0_1">
<rect width="24" height="24" fill="white" transform="translate(197 17)"/>
</clipPath>
</defs>
</svg>
